<?xml version="1.0" encoding="UTF-8"?>
<svg width="600px" height="600px" viewBox="0 0 600 600" version="1.1" xmlns="http://www.w3.org/2000/svg" xmlns:xlink="http://www.w3.org/1999/xlink">
    <title>assets/icon</title>
    <g id="/assets/icon" stroke="none" fill="none" fill-rule="evenodd" stroke-width="1">
        <g id="Group" transform="translate(103, 8)" fill="#000000">
            <path d="M351.700665,581.371636 L351.700665,580.160045 C351.770324,579.939756 351.805153,579.756182 351.805153,579.609323 C351.805153,578.728166 351.33496,577.461503 350.394576,575.809335 C349.454191,574.157166 348.252589,572.321423 346.789768,570.302106 C345.326948,568.282789 343.707397,566.153327 341.931115,563.913721 C340.154833,561.674114 338.465624,559.48958 336.863487,557.360118 L332.579513,551.742745 L323.384642,553.505058 L323.384642,557.029685 C323.384642,559.012287 323.419471,561.215179 323.489129,563.638359 C323.558787,566.06154 323.663274,568.374576 323.80259,570.577467 C323.941906,572.780359 324.168295,574.762961 324.481757,576.525274 C324.795218,578.287588 325.160923,579.499178 325.578872,580.160045 L325.578872,581.371636 L308.860924,581.371636 L308.860924,580.160045 C309.278873,579.499178 309.627164,578.287588 309.905796,576.525274 C310.184429,574.762961 310.393403,572.780359 310.532719,570.577467 C310.672035,568.374576 310.776523,566.06154 310.846181,563.638359 C310.915839,561.215179 310.950668,559.012287 310.950668,557.029685 L310.950668,531.916722 C310.950668,529.934119 310.933253,527.749585 310.898424,525.363119 C310.863595,522.976654 310.759108,520.663617 310.584963,518.424011 C310.410818,516.184405 310.184429,514.183445 309.905796,512.421132 C309.627164,510.658819 309.278873,509.447228 308.860924,508.786361 L308.860924,507.79506 C310.184429,507.79506 311.647249,507.776702 313.249386,507.739987 C314.851522,507.703272 316.505903,507.6482 318.212526,507.57477 C319.91915,507.501341 321.643189,507.446268 323.384642,507.409554 C325.126094,507.372839 326.797889,507.354481 328.400026,507.354481 C332.579513,507.354481 336.532611,507.703272 340.25932,508.400855 C343.986029,509.098437 347.259961,510.29167 350.081114,511.980553 C352.902268,513.669437 355.148742,515.890686 356.820537,518.6443 C358.492332,521.397915 359.328229,524.867469 359.328229,529.052963 C359.328229,531.182424 358.892866,533.275171 358.022139,535.331203 C357.151413,537.387235 356.158785,539.259693 355.044255,540.948577 L345.117974,547.77754 L356.089127,562.647058 C358.318186,565.657676 360.198956,568.099214 361.731434,569.971672 C363.263913,571.84413 364.604831,573.422869 365.75419,574.707889 C366.903549,575.992909 367.965835,577.039282 368.941049,577.847009 C369.916263,578.654736 370.961134,579.425748 372.075664,580.160045 L372.075664,581.371636 L351.700665,581.371636 Z M344.865514,529.201755 C344.865514,524.722543 343.698741,521.546707 341.365194,519.67425 C339.031647,517.801792 336.550025,516.865563 331.743615,516.865563 C330.698744,516.865563 329.392654,516.938993 327.825346,517.085852 C326.258039,517.232712 324.777804,517.416286 323.384642,517.636575 L323.384642,544.803637 L332.475026,544.803637 C334.216478,544.730207 335.888273,544.363059 337.49041,543.702191 C339.092547,543.041324 340.520538,542.031665 341.774384,540.673215 C343.02823,539.314766 342.949916,538.94955 343.716155,536.856803 C344.482395,534.764056 344.865514,532.212374 344.865514,529.201755 Z" id="Shape" fill-rule="nonzero"></path>
            <g id="TM" transform="translate(368.5862, 357.8124)" fill-rule="nonzero">
                <polygon id="Path" points="10.4741592 2.221674 6.53531014 2.221674 6.53531014 13.3117586 3.88586009 13.3117586 3.88586009 2.221674 0 2.221674 0 0 10.4741592 0"></polygon>
                <polygon id="Path" points="15.4462938 0 18.7492749 9.65468209 22.034593 0 25.5142041 0 25.5142041 13.3117586 22.8559225 13.3117586 22.8559225 9.67296747 23.1208675 3.3919385 19.6500879 13.3117586 17.8307989 13.3117586 14.3688508 3.40108119 14.6337958 9.67296747 14.6337958 13.3117586 11.9843458 13.3117586 11.9843458 0"></polygon>
            </g>
            <path d="M203.600768,0.212369426 L266.48485,0.212369426 C266.48485,38.4990887 266.48485,63.9285566 266.48485,76.5007731 C266.48485,95.3590978 271.967915,124.939713 297.81791,124.939713 C323.667905,124.939713 329.613746,95.3590978 329.613746,76.5007731 C329.613746,63.9285566 329.613746,38.4990887 329.613746,0.212369426 L392.035845,0.212369426 C392.035845,43.6758837 392.035845,69.1053516 392.035845,76.5007731 C392.035845,87.5939053 392.035845,177.805639 297.81791,177.805639 C203.600768,177.805639 203.600768,87.5939053 203.600768,76.5007731 C203.600768,69.1053516 203.600768,43.6758837 203.600768,0.212369426 Z" id="Path" transform="translate(297.8183, 89.009) rotate(180) translate(-297.8183, -89.009)"></path>
            <path d="M0.0913490406,178.433044 L170.628645,178.433044 C156.658385,158.383774 136.582598,148.359139 110.401283,148.359139 C84.2199688,148.359139 68.2003712,154.075155 62.3424907,165.507187 C63.0712115,121.842615 63.5345688,98.3085668 63.7325624,94.9050424 C64.0295529,89.799756 64.0229688,48.7731792 96.0000406,48.7731792 C117.318089,48.7731792 127.107563,64.8069743 125.368463,96.8745644 L184.927875,96.8745644 C186.351182,32.2915215 156.708571,1.42108547e-14 96.0000406,1.42108547e-14 C4.93724536,1.42108547e-14 2.75791216,78.1697453 1.21254905,96.8745644 C0.182306984,109.344444 -0.191426354,136.530604 0.0913490406,178.433044 Z" id="Path"></path>
            <path d="M175.309653,194.342183 C181.828869,208.146881 185.700217,220.1444 186.923697,230.334742 C191.116941,265.26019 186.154614,307.262909 175.309653,327.846659 C152.31288,371.494565 107.524611,371.931044 95.6944154,371.935409 L95.3460692,371.935453 C84.0745648,371.935453 38.5484797,371.935453 13.2351327,327.846659 C2.05030584,308.365809 0.314677033,276.733709 0.0479235749,245.501654 L0.0315957442,243.32348 C0.0198079712,241.50914 0.0123579701,239.697138 0.00767741936,237.889941 L0.00328972207,235.72377 C0.00220335331,235.002587 0.00145972403,234.282331 0.000958461642,233.56316 L1.93267624e-12,194.342183 L175.309653,194.342183 Z M94.7071942,201.206696 C66.9743637,201.206696 63.0917674,229.33868 63.0917674,264.872773 C63.0917674,300.406866 66.9743637,328.333368 94.7071942,328.333368 C122.440025,328.333368 126.322621,300.406866 126.322621,264.872773 C126.322621,229.33868 122.440025,201.206696 94.7071942,201.206696 Z" id="Combined-Shape"></path>
            <path d="M203.600768,194.342183 L266.48485,194.342183 C266.48485,232.628902 266.48485,258.05837 266.48485,270.630587 C266.48485,289.488911 271.967915,319.069527 297.81791,319.069527 C323.667905,319.069527 329.613746,289.488911 329.613746,270.630587 C329.613746,258.05837 329.613746,232.628902 329.613746,194.342183 L392.035845,194.342183 C392.035845,237.805697 392.035845,263.235165 392.035845,270.630587 C392.035845,281.723719 392.035845,371.935453 297.81791,371.935453 C203.600768,371.935453 203.600768,281.723719 203.600768,270.630587 C203.600768,263.235165 203.600768,237.805697 203.600768,194.342183 Z" id="Path"></path>
            <path d="M56.2391406,489.446666 C55.7669483,489.008027 55.0439039,488.679047 54.0700073,488.459727 C53.0961108,488.240407 51.9746541,488.075918 50.7056374,487.966258 C49.4366207,487.856598 48.0495559,487.783491 46.5444431,487.746938 C45.0393302,487.710385 43.5194613,487.692108 41.9848365,487.692108 L12.7257034,487.363128 L12.7257034,486.156869 C13.0798476,485.49891 13.3749677,484.274374 13.6110639,482.483263 C13.84716,480.692151 14.0389881,478.663443 14.1865482,476.397138 C14.3341083,474.130833 14.4226443,471.791422 14.4521563,469.378904 C14.4816684,466.966386 14.4964244,464.809742 14.4964244,462.90897 L14.4964244,438.783791 C14.4964244,436.88302 14.4816684,434.708098 14.4521563,432.259027 C14.4226443,429.809956 14.3488643,427.452268 14.2308162,425.185963 C14.1127681,422.919659 13.935696,420.872674 13.6995999,419.045009 C13.4635038,417.217344 13.1388716,415.974531 12.7257034,415.316572 L12.7257034,414.329633 L37.3387253,414.329633 C38.8733502,414.329633 40.5112671,414.311356 42.2524761,414.274803 C43.9936851,414.23825 45.646358,414.165143 47.2104949,414.055483 C48.7746318,413.945823 50.1616966,413.781333 51.3716892,413.562014 C52.5816819,413.342694 53.4227744,413.013714 53.8949667,412.575075 L54.8688632,412.575075 L54.8688632,426.620142 L53.8949667,426.620142 C53.2457023,425.962182 51.9914416,425.468713 50.1321845,425.139733 C48.2729275,424.810753 46.2070863,424.55488 43.934661,424.372114 C41.6622357,424.189347 39.4045665,424.079687 37.1616532,424.043134 C34.9187399,424.006581 33.1185069,423.988304 31.7609541,423.988304 L29.18111,423.988304 L29.18111,444.554904 L32.8233867,444.554904 C34.2989876,444.554904 36.0401966,444.536628 38.0470137,444.500075 C40.0538308,444.463521 42.031136,444.353861 43.9789291,444.171095 C45.9267222,443.988328 47.6826872,443.750732 49.246824,443.458305 C50.8109609,443.165879 51.8586375,442.763793 52.3898538,442.252047 L53.2752143,442.252047 L53.2752143,455.520895 L52.3898538,455.520895 C51.8586375,455.009149 50.8109609,454.607062 49.246824,454.314636 C47.6826872,454.022209 45.9267222,453.80289 43.9789291,453.656676 C42.031136,453.510463 40.0538308,453.41908 38.0470137,453.382527 C36.0401966,453.345973 34.2989876,453.327697 32.8233867,453.327697 L29.18111,453.327697 L29.18111,477.899213 L37.4694979,478.228192 C38.8860747,478.228192 40.5387477,478.191639 42.4275167,478.118532 C44.3162858,478.045426 46.1902989,477.917489 48.0495559,477.734723 C49.908813,477.551956 51.5909979,477.296083 53.0961108,476.967103 C54.6012236,476.638124 55.6489002,476.181207 56.2391406,475.596355 L57.2130371,475.596355 L57.2130371,489.446666 L56.2391406,489.446666 Z" id="Path" fill-rule="nonzero"></path>
            <path d="M124.84842,487.617752 L124.84842,486.506781 C125.318918,485.469874 119.369197,474.518831 117.21835,468.59365 L93.7786965,468.59365 C93.0393428,470.593399 89.2320468,482.533682 88.8170934,483.728014 C88.40214,484.922346 87.9492806,485.988328 88.0837085,486.506781 L88.0837085,487.617752 L72.7589231,487.617752 L72.7589231,486.506781 C74.5064864,484.581097 75.7220341,480.906108 77.3015624,477.610226 C78.8810908,474.314344 104.933315,413.062858 107.391401,413.062858 C108.658351,413.062858 113.956078,424.649063 121.221455,440.333119 C128.052074,455.078647 139.230225,478.571743 140.060772,480.617484 C141.774728,484.839175 141.584699,484.210773 143.601118,486.506781 L143.601118,487.617752 L124.84842,487.617752 Z M105.54777,437.399548 L97.103226,458.761247 L114.170656,458.761247 L105.54777,437.399548 Z" id="Shape" fill-rule="nonzero"></path>
            <path d="M203.090575,487.080012 L203.090575,485.868422 C203.160233,485.648133 203.195063,485.464558 203.195063,485.317699 C203.195063,484.436542 202.72487,483.16988 201.784486,481.517711 C200.844101,479.865542 199.642499,478.029799 198.179678,476.010482 C196.716858,473.991165 195.097307,471.861703 193.321025,469.622097 C191.544743,467.382491 189.855533,465.197956 188.253397,463.068495 L183.969423,457.451121 L174.774551,459.213435 L174.774551,462.738061 C174.774551,464.720663 174.80938,466.923555 174.879039,469.346735 C174.948697,471.769916 175.053184,474.082952 175.1925,476.285844 C175.331816,478.488735 175.558205,480.471338 175.871667,482.233651 C176.185128,483.995964 176.550833,485.207554 176.968782,485.868422 L176.968782,487.080012 L160.250834,487.080012 L160.250834,485.868422 C160.668783,485.207554 161.017074,483.995964 161.295706,482.233651 C161.574339,480.471338 161.783313,478.488735 161.922629,476.285844 C162.061945,474.082952 162.166433,471.769916 162.236091,469.346735 C162.305749,466.923555 162.340578,464.720663 162.340578,462.738061 L162.340578,437.625098 C162.340578,435.642496 162.323163,433.457961 162.288334,431.071496 C162.253505,428.68503 162.149018,426.371994 161.974873,424.132387 C161.800727,421.892781 161.574339,419.891821 161.295706,418.129508 C161.017074,416.367195 160.668783,415.155605 160.250834,414.494737 L160.250834,413.503436 C161.574339,413.503436 163.037159,413.485078 164.639296,413.448364 C166.241432,413.411649 167.895813,413.356576 169.602436,413.283147 C171.30906,413.209717 173.033099,413.154645 174.774551,413.11793 C176.516004,413.081215 178.187799,413.062858 179.789936,413.062858 C183.969423,413.062858 187.922521,413.411649 191.64923,414.109231 C195.375939,414.806813 198.649871,416.000046 201.471024,417.68893 C204.292178,419.377813 206.538652,421.599062 208.210447,424.352677 C209.882242,427.106291 210.718139,430.575845 210.718139,434.761339 C210.718139,436.890801 210.282776,438.983548 209.412049,441.03958 C208.541323,443.095612 207.548695,444.96807 206.434165,446.656953 L196.507883,453.485917 L207.479037,468.355434 C209.708096,471.366053 211.588865,473.807591 213.121344,475.680049 C214.653823,477.552506 215.994741,479.131245 217.1441,480.416265 C218.293459,481.701285 219.355745,482.747659 220.330959,483.555386 C221.306173,484.363113 222.351044,485.134125 223.465574,485.868422 L223.465574,487.080012 L203.090575,487.080012 Z M196.255424,434.910132 C196.255424,430.430919 195.088651,427.255084 192.755104,425.382626 C190.421557,423.510168 187.939935,422.573939 183.133525,422.573939 C182.088654,422.573939 180.782564,422.647369 179.215256,422.794228 C177.647949,422.941088 176.167714,423.124662 174.774551,423.344951 L174.774551,450.512013 L183.864936,450.512013 C185.606388,450.438583 187.278183,450.071435 188.88032,449.410567 C190.482456,448.7497 191.910448,447.740041 193.164294,446.381592 C194.41814,445.023142 194.339826,444.657927 195.106065,442.56518 C195.872305,440.472433 196.255424,437.92075 196.255424,434.910132 Z" id="Shape" fill-rule="nonzero"></path>
            <path d="M291.541847,426.328232 C290.887337,425.825558 289.651041,425.412647 287.832958,425.089499 C286.014875,424.766352 283.978622,424.497062 281.7242,424.28163 C279.469777,424.066198 277.178993,423.922577 274.851847,423.850766 C272.524701,423.778956 270.524809,423.74305 268.852173,423.74305 L266.015964,423.74305 L266.015964,462.951646 C266.015964,464.818722 266.034145,466.937135 266.070506,469.306885 C266.106868,471.676635 266.215953,473.992528 266.397761,476.254562 C266.57957,478.516596 266.81592,480.527293 267.106814,482.286654 C267.397707,484.046014 267.761324,485.248841 268.197663,485.895137 L268.197663,487.080012 L250.744068,487.080012 L250.744068,485.895137 C251.180408,485.248841 251.562206,484.046014 251.88946,482.286654 C252.216715,480.527293 252.453066,478.534549 252.598513,476.30842 C252.743959,474.082291 252.853044,471.766399 252.925768,469.360743 C252.998491,466.955087 253.034853,464.818722 253.034853,462.951646 L253.034853,423.74305 L250.089558,423.74305 C248.416922,423.74305 246.417031,423.761003 244.089885,423.796908 C241.762739,423.832814 239.471955,423.922577 237.217532,424.066198 C234.963109,424.209819 232.926857,424.407298 231.108774,424.658636 C229.290691,424.909973 228.054395,425.286978 227.399885,425.789653 L226.19995,425.789653 L226.19995,412.756026 L227.399885,412.756026 C228.127118,413.330511 229.599765,413.779328 231.817826,414.102475 C234.035887,414.425623 236.50848,414.659008 239.235604,414.802629 C241.962728,414.94625 244.726214,415.053966 247.526062,415.125777 C250.325909,415.197587 252.707598,415.233492 254.671127,415.233492 L270.488448,415.233492 C272.597424,415.233492 274.779123,415.21554 277.033546,415.179635 C279.287969,415.143729 281.396945,415.071919 283.360474,414.964203 C285.324004,414.856487 287.033001,414.694913 288.487468,414.479481 C289.941934,414.264049 290.96006,413.940901 291.541847,413.510038 L292.741782,413.510038 L292.741782,426.328232 L291.541847,426.328232 Z" id="Path" fill-rule="nonzero"></path>
            <path d="M358.572606,487.080012 L358.572606,485.978566 C359.091885,485.317699 359.499889,484.106109 359.79662,482.343795 C360.093351,480.581482 360.315899,478.580522 360.464264,476.340916 C360.612629,474.10131 360.723903,471.788274 360.798086,469.401808 C360.872268,467.015342 360.90936,464.867523 360.90936,462.95835 L360.90936,453.002135 L325.412965,453.002135 L325.412965,462.95835 C325.412965,464.867523 325.450056,467.015342 325.524239,469.401808 C325.598421,471.788274 325.709695,474.10131 325.858061,476.340916 C326.006426,478.580522 326.247519,480.581482 326.581341,482.343795 C326.915163,484.106109 327.304622,485.317699 327.749718,485.978566 L327.749718,487.080012 L309.945884,487.080012 L309.945884,485.978566 C310.390979,485.317699 310.761893,484.106109 311.058623,482.343795 C311.355354,480.581482 311.596447,478.580522 311.781904,476.340916 C311.967361,474.10131 312.078635,471.788274 312.115726,469.401808 C312.152817,467.015342 312.171363,464.867523 312.171363,462.95835 L312.171363,437.625098 C312.171363,435.715925 312.152817,433.568106 312.115726,431.18164 C312.078635,428.795174 311.967361,426.482138 311.781904,424.242532 C311.596447,422.002926 311.355354,419.983608 311.058623,418.18458 C310.761893,416.385552 310.390979,415.155605 309.945884,414.494737 L309.945884,413.503436 L327.749718,413.503436 L327.749718,414.494737 C327.230439,415.155605 326.822435,416.385552 326.525704,418.18458 C326.228974,419.983608 325.98788,422.002926 325.802424,424.242532 C325.616967,426.482138 325.505693,428.795174 325.468602,431.18164 C325.43151,433.568106 325.412965,435.715925 325.412965,437.625098 L325.412965,442.165117 L360.90936,442.165117 L360.90936,437.625098 C360.90936,435.715925 360.872268,433.568106 360.798086,431.18164 C360.723903,428.795174 360.612629,426.482138 360.464264,424.242532 C360.315899,422.002926 360.093351,419.983608 359.79662,418.18458 C359.499889,416.385552 359.091885,415.155605 358.572606,414.494737 L358.572606,413.503436 L376.487715,413.503436 L376.487715,414.494737 C375.968436,415.155605 375.560432,416.385552 375.263701,418.18458 C374.966971,419.983608 374.725877,422.002926 374.540421,424.242532 C374.354964,426.482138 374.24369,428.795174 374.206599,431.18164 C374.169507,433.568106 374.150962,435.715925 374.150962,437.625098 L374.150962,462.95835 C374.150962,464.867523 374.188053,467.015342 374.262236,469.401808 C374.336418,471.788274 374.447692,474.10131 374.596057,476.340916 C374.744423,478.580522 374.985516,480.581482 375.319338,482.343795 C375.65316,484.106109 376.042619,485.317699 376.487715,485.978566 L376.487715,487.080012 L358.572606,487.080012 Z" id="Path" fill-rule="nonzero"></path>
            <path d="M198.195779,544.109545 C198.195779,549.861539 197.194039,555.184002 195.190557,560.076932 C193.187075,564.969862 190.427563,569.190482 186.912019,572.73879 C183.396476,576.287098 179.238306,579.051044 174.437511,581.030626 C169.636715,583.010209 164.439003,584 158.844375,584 C153.552159,584 148.694661,583.103585 144.27188,581.310756 C139.8491,579.517926 136.050045,576.959409 132.874716,573.635205 C129.699386,570.311 127.223385,566.314485 125.446713,561.645658 C123.67004,556.976831 122.781704,551.766421 122.781704,546.014426 C122.781704,540.113029 123.764544,534.734541 125.730224,529.878961 C127.695904,525.023381 130.417615,520.858788 133.895357,517.385181 C137.373099,513.911574 141.512368,511.203654 146.313164,509.261422 C151.113959,507.319191 156.349473,506.348075 162.019704,506.348075 C167.387523,506.348075 172.301723,507.244489 176.762305,509.037319 C181.222887,510.830148 185.040843,513.36999 188.216172,516.656844 C191.391502,519.943698 193.848602,523.921538 195.587473,528.590365 C197.326344,533.259192 198.195779,538.432252 198.195779,544.109545 Z M183.453178,547.022893 C183.453178,541.495002 182.867254,536.732799 181.695407,532.736283 C180.523559,528.739767 178.898092,525.434238 176.819008,522.819695 C174.739923,520.205152 172.320624,518.281596 169.561112,517.049025 C166.801599,515.816455 163.834178,515.20017 160.658849,515.20017 C157.710328,515.20017 154.837411,515.79778 152.040097,516.992999 C149.242783,518.188219 146.766782,519.981049 144.612094,522.371488 C142.457406,524.761927 140.718535,527.749976 139.395481,531.335635 C138.072428,534.921294 137.410901,539.104563 137.410901,543.885441 C137.410901,549.039826 138.015725,553.55925 139.225375,557.443714 C140.435024,561.328178 142.079391,564.577681 144.158476,567.192224 C146.23756,569.806767 148.694661,571.786349 151.529776,573.130971 C154.364892,574.475594 157.407916,575.147905 160.658849,575.147905 C163.682972,575.147905 166.57479,574.531619 169.334302,573.299049 C172.093815,572.066479 174.532014,570.27365 176.648901,567.920561 C178.765787,565.567472 180.429055,562.635449 181.638704,559.124491 C182.848354,555.613534 183.453178,551.579668 183.453178,547.022893 Z" id="Shape" fill-rule="nonzero"></path>
            <path d="M81.3149757,581.371636 L81.3149757,580.27019 C81.8342542,579.609323 82.2422587,578.397732 82.5389893,576.635419 C82.8357199,574.873106 83.0582678,572.872146 83.2066331,570.63254 C83.3549984,568.392933 83.4662724,566.079897 83.540455,563.693431 C83.6146377,561.306966 83.651729,559.159146 83.651729,557.249974 L83.651729,547.293758 L48.155334,547.293758 L48.155334,557.249974 C48.155334,559.159146 48.1924253,561.306966 48.2666079,563.693431 C48.3407906,566.079897 48.4520646,568.392933 48.6004298,570.63254 C48.7487951,572.872146 48.9898887,574.873106 49.3237106,576.635419 C49.6575325,578.397732 50.0469914,579.609323 50.4920873,580.27019 L50.4920873,581.371636 L32.6882528,581.371636 L32.6882528,580.27019 C33.1333486,579.609323 33.5042619,578.397732 33.8009924,576.635419 C34.097723,574.873106 34.3388166,572.872146 34.5242732,570.63254 C34.7097298,568.392933 34.8210038,566.079897 34.8580951,563.693431 C34.8951864,561.306966 34.9137321,559.159146 34.9137321,557.249974 L34.9137321,531.916722 C34.9137321,530.007549 34.8951864,527.85973 34.8580951,525.473264 C34.8210038,523.086798 34.7097298,520.773762 34.5242732,518.534156 C34.3388166,516.294549 34.097723,514.275232 33.8009924,512.476204 C33.5042619,510.677176 33.1333486,509.447228 32.6882528,508.786361 L32.6882528,507.79506 L50.4920873,507.79506 L50.4920873,508.786361 C49.9728087,509.447228 49.5648042,510.677176 49.2680736,512.476204 C48.9713431,514.275232 48.7302495,516.294549 48.5447929,518.534156 C48.3593362,520.773762 48.2480623,523.086798 48.210971,525.473264 C48.1738796,527.85973 48.155334,530.007549 48.155334,531.916722 L48.155334,536.456741 L83.651729,536.456741 L83.651729,531.916722 C83.651729,530.007549 83.6146377,527.85973 83.540455,525.473264 C83.4662724,523.086798 83.3549984,520.773762 83.2066331,518.534156 C83.0582678,516.294549 82.8357199,514.275232 82.5389893,512.476204 C82.2422587,510.677176 81.8342542,509.447228 81.3149757,508.786361 L81.3149757,507.79506 L99.2300841,507.79506 L99.2300841,508.786361 C98.7108056,509.447228 98.3028011,510.677176 98.0060705,512.476204 C97.70934,514.275232 97.4682464,516.294549 97.2827898,518.534156 C97.0973331,520.773762 96.9860592,523.086798 96.9489679,525.473264 C96.9118765,527.85973 96.8933309,530.007549 96.8933309,531.916722 L96.8933309,557.249974 C96.8933309,559.159146 96.9304222,561.306966 97.0046048,563.693431 C97.0787875,566.079897 97.1900614,568.392933 97.3384267,570.63254 C97.486792,572.872146 97.7278856,574.873106 98.0617075,576.635419 C98.3955294,578.397732 98.7849883,579.609323 99.2300841,580.27019 L99.2300841,581.371636 L81.3149757,581.371636 Z" id="Path" fill-rule="nonzero"></path>
            <path d="M220.003595,508.50538 L236.801674,508.50538 C236.194833,517.484079 235.845932,525.783118 235.754972,533.402499 C235.664011,541.021879 235.830992,547.961599 236.255912,554.221661 C237.395897,567.084657 243.333234,573.113771 254.067925,572.309002 C264.802615,571.504233 270.369206,565.475119 270.767699,554.221661 C271.003229,545.073219 271.003229,536.689309 270.767699,529.069928 C270.532169,521.450548 270.061109,514.595699 269.354519,508.50538 L283.390646,508.50538 C282.71287,516.468638 282.261019,524.259958 282.035093,531.879338 C281.809168,539.498718 281.809168,546.946159 282.035093,554.221661 C282.153612,572.397978 272.559408,582.056211 253.252484,583.19636 C224.292097,584.906584 221.473648,563.269284 221.473648,554.221661 C221.473648,545.174037 221.841161,542.356622 221.473648,530.927551 C221.228639,523.308171 220.738621,515.834114 220.003595,508.50538 Z" id="Path"></path>
        </g>
    </g>
</svg>